<?xml version="1.0" encoding="UTF-8" standalone="no"?><svg xmlns="http://www.w3.org/2000/svg" xmlns:xlink="http://www.w3.org/1999/xlink" version="1.1" id="Layer_1" x="0px" y="0px" viewBox="0 0 40 40" xml:space="preserve" width="40" height="40"><path d="M17.167 38.5c-.56-.001-13.667-.164-13.667-12.8C3.5 8.781 13.872 1.5 17.167 1.5c1.461 0 2.333.878 2.333 2.35v32.3a2.344 2.344 0 0 1-2.333 2.35z" fill="#FFADAD"/><path d="M17.167 2C18.762 2 19 3.159 19 3.85v32.3c0 1.02-.822 1.85-1.833 1.85C16.629 38 4 37.86 4 25.7 4 9.13 13.993 2 17.167 2m0-1C13.389 1 3 8.6 3 25.7 3 39 17.167 39 17.167 39A2.842 2.842 0 0 0 20 36.15V3.85C20 2.277 19.056 1 17.167 1z" fill="#C74343"/><path d="M12.5 17.5h2a2 2 0 1 0 0-4h-2" fill="none" stroke="#C74343" stroke-linecap="round" stroke-miterlimit="10"/><path d="M14.5 9.5h-2a2 2 0 1 0 0 4h2" fill="none" stroke="#C74343" stroke-linecap="round" stroke-miterlimit="10"/><path d="M12.5 27.5h-2a2 2 0 1 0 0 4h2" fill="none" stroke="#C74343" stroke-linecap="round" stroke-miterlimit="10"/><path d="M13.5 34.5H15a1.5 1.5 0 0 0 0-3h-3.75" fill="none" stroke="#C74343" stroke-linecap="round" stroke-miterlimit="10"/><path d="M13.5 9.5H15a1.5 1.5 0 0 0 0-3h-1.5" fill="none" stroke="#C74343" stroke-linecap="round" stroke-miterlimit="10"/><path d="M11.5 27.5H14a2.5 2.5 0 1 0 0-5h-2.5" fill="none" stroke="#C74343" stroke-linecap="round" stroke-miterlimit="10"/><path d="M13.75 17.5H10a2.5 2.5 0 1 0 0 5h2.5" fill="none" stroke="#C74343" stroke-linecap="round" stroke-miterlimit="10"/><path d="M21.833 38.5a2.344 2.344 0 0 1-2.333-2.35V3.85c0-1.472.873-2.35 2.333-2.35C25.128 1.5 35.5 8.781 35.5 25.7c0 12.654-13.108 12.8-13.667 12.8z" fill="#FFADAD"/><path d="M21.833 2C25.007 2 35 9.13 35 25.7 35 37.826 22.37 37.999 21.833 38A1.844 1.844 0 0 1 20 36.15V3.85c0-.691.238-1.85 1.833-1.85m0-1C19.944 1 19 2.277 19 3.85v32.3A2.842 2.842 0 0 0 21.833 39S36 39 36 25.7C36 8.6 25.611 1 21.833 1z" fill="#C74343"/><path d="M26.5 17.5h-2a2 2 0 1 1 0-4h2" fill="none" stroke="#C74343" stroke-linecap="round" stroke-miterlimit="10"/><path d="M24.5 9.5h2a2 2 0 1 1 0 4h-2" fill="none" stroke="#C74343" stroke-linecap="round" stroke-miterlimit="10"/><path d="M26.5 27.5h2a2 2 0 1 1 0 4h-2" fill="none" stroke="#C74343" stroke-linecap="round" stroke-miterlimit="10"/><path d="M25.5 34.5H24a1.5 1.5 0 0 1 0-3h3.75" fill="none" stroke="#C74343" stroke-linecap="round" stroke-miterlimit="10"/><path d="M25.5 9.5H24a1.5 1.5 0 0 1 0-3h1.5" fill="none" stroke="#C74343" stroke-linecap="round" stroke-miterlimit="10"/><path d="M27.5 27.5H25a2.5 2.5 0 1 1 0-5h2.5" fill="none" stroke="#C74343" stroke-linecap="round" stroke-miterlimit="10"/><path d="M25.25 17.5H29a2.5 2.5 0 1 1 0 5h-2.5" fill="none" stroke="#C74343" stroke-linecap="round" stroke-miterlimit="10"/><metadata><rdf:RDF xmlns:rdf="http://www.w3.org/1999/02/22-rdf-syntax-ns#" xmlns:rdfs="http://www.w3.org/2000/01/rdf-schema#" xmlns:dc="http://purl.org/dc/elements/1.1/"><rdf:Description about="https://iconscout.com/legal#licenses" dc:title="brain" dc:description="brain" dc:publisher="Iconscout" dc:date="2017-10-29" dc:format="image/svg+xml" dc:language="en"><dc:creator><rdf:Bag><rdf:li>Icons8</rdf:li></rdf:Bag></dc:creator></rdf:Description></rdf:RDF></metadata></svg>